<svg width="79" height="75" viewBox="0 0 79 75" fill="none" xmlns="http://www.w3.org/2000/svg">
<g clip-path="url(#clip0_775_4)">
<mask id="path-1-outside-1_775_4" maskUnits="userSpaceOnUse" x="16" y="0" width="63" height="74" fill="black">
<rect fill="white" x="16" width="63" height="74"/>
<path d="M17.3242 1.41797H45.9375C51.6016 1.41797 55.8171 1.66211 58.584 2.15039C61.3835 2.60612 63.8737 3.58268 66.0547 5.08008C68.2682 6.57747 70.1074 8.57943 71.5723 11.0859C73.0371 13.5599 73.7695 16.3431 73.7695 19.4355C73.7695 22.7884 72.8581 25.8646 71.0352 28.6641C69.2448 31.4635 66.8034 33.5632 63.7109 34.9629C68.0729 36.2324 71.4258 38.3971 73.7695 41.457C76.1133 44.5169 77.2852 48.1139 77.2852 52.248C77.2852 55.5033 76.5202 58.6771 74.9902 61.7695C73.4928 64.8294 71.4258 67.2871 68.7891 69.1426C66.1849 70.9655 62.9622 72.0885 59.1211 72.5117C56.7122 72.7721 50.9017 72.9349 41.6895 73H17.3242V1.41797ZM31.7773 13.332V29.8848H41.25C46.8815 29.8848 50.3809 29.8034 51.748 29.6406C54.222 29.3477 56.1589 28.5013 57.5586 27.1016C58.9909 25.6693 59.707 23.7975 59.707 21.4863C59.707 19.2728 59.0885 17.4824 57.8516 16.1152C56.6471 14.7155 54.8405 13.8691 52.4316 13.5762C50.9993 13.4134 46.8815 13.332 40.0781 13.332H31.7773ZM31.7773 41.7988V60.9395H45.1562C50.3646 60.9395 53.6686 60.793 55.0684 60.5C57.2168 60.1094 58.9583 59.1654 60.293 57.668C61.6602 56.138 62.3438 54.1035 62.3438 51.5645C62.3438 49.416 61.8229 47.5931 60.7812 46.0957C59.7396 44.5983 58.2259 43.5078 56.2402 42.8242C54.2871 42.1406 50.0228 41.7988 43.4473 41.7988H31.7773Z"/>
</mask>
<path d="M17.3242 1.41797H45.9375C51.6016 1.41797 55.8171 1.66211 58.584 2.15039C61.3835 2.60612 63.8737 3.58268 66.0547 5.08008C68.2682 6.57747 70.1074 8.57943 71.5723 11.0859C73.0371 13.5599 73.7695 16.3431 73.7695 19.4355C73.7695 22.7884 72.8581 25.8646 71.0352 28.6641C69.2448 31.4635 66.8034 33.5632 63.7109 34.9629C68.0729 36.2324 71.4258 38.3971 73.7695 41.457C76.1133 44.5169 77.2852 48.1139 77.2852 52.248C77.2852 55.5033 76.5202 58.6771 74.9902 61.7695C73.4928 64.8294 71.4258 67.2871 68.7891 69.1426C66.1849 70.9655 62.9622 72.0885 59.1211 72.5117C56.7122 72.7721 50.9017 72.9349 41.6895 73H17.3242V1.41797ZM31.7773 13.332V29.8848H41.25C46.8815 29.8848 50.3809 29.8034 51.748 29.6406C54.222 29.3477 56.1589 28.5013 57.5586 27.1016C58.9909 25.6693 59.707 23.7975 59.707 21.4863C59.707 19.2728 59.0885 17.4824 57.8516 16.1152C56.6471 14.7155 54.8405 13.8691 52.4316 13.5762C50.9993 13.4134 46.8815 13.332 40.0781 13.332H31.7773ZM31.7773 41.7988V60.9395H45.1562C50.3646 60.9395 53.6686 60.793 55.0684 60.5C57.2168 60.1094 58.9583 59.1654 60.293 57.668C61.6602 56.138 62.3438 54.1035 62.3438 51.5645C62.3438 49.416 61.8229 47.5931 60.7812 46.0957C59.7396 44.5983 58.2259 43.5078 56.2402 42.8242C54.2871 42.1406 50.0228 41.7988 43.4473 41.7988H31.7773Z" fill="white"/>
<path d="M17.3242 1.41797V0.417969H16.3242V1.41797H17.3242ZM58.584 2.15039L58.4102 3.13526L58.4233 3.1374L58.584 2.15039ZM66.0547 5.08008L65.4887 5.9045L65.4944 5.90836L66.0547 5.08008ZM71.5723 11.0859L70.7089 11.5905L70.7118 11.5954L71.5723 11.0859ZM71.0352 28.6641L70.1971 28.1184L70.1927 28.1253L71.0352 28.6641ZM63.7109 34.9629L63.2986 34.0519L60.8345 35.1672L63.4315 35.9231L63.7109 34.9629ZM74.9902 61.7695L74.0939 61.3261L74.092 61.33L74.9902 61.7695ZM68.7891 69.1426L69.3625 69.9618L69.3646 69.9604L68.7891 69.1426ZM59.1211 72.5117L59.2286 73.5059L59.2306 73.5057L59.1211 72.5117ZM41.6895 73L41.6895 74L41.6965 74L41.6895 73ZM17.3242 73H16.3242V74H17.3242V73ZM31.7773 13.332V12.332H30.7773V13.332H31.7773ZM31.7773 29.8848H30.7773V30.8848H31.7773V29.8848ZM51.748 29.6406L51.6304 28.6476L51.6298 28.6476L51.748 29.6406ZM57.8516 16.1152L57.0936 16.7675L57.1017 16.7769L57.11 16.7861L57.8516 16.1152ZM52.4316 13.5762L52.5524 12.5835L52.5446 12.5826L52.4316 13.5762ZM31.7773 41.7988V40.7988H30.7773V41.7988H31.7773ZM31.7773 60.9395H30.7773V61.9395H31.7773V60.9395ZM55.0684 60.5L54.8895 59.5161L54.8765 59.5185L54.8635 59.5212L55.0684 60.5ZM60.293 57.668L59.5473 57.0016L59.5465 57.0026L60.293 57.668ZM60.7812 46.0957L61.6022 45.5246L60.7812 46.0957ZM56.2402 42.8242L55.9099 43.7681L55.9147 43.7698L56.2402 42.8242ZM17.3242 2.41797H45.9375V0.417969H17.3242V2.41797ZM45.9375 2.41797C51.5894 2.41797 55.733 2.66272 58.4102 3.13517L58.7578 1.16561C55.9012 0.661498 51.6137 0.417969 45.9375 0.417969V2.41797ZM58.4233 3.1374C61.088 3.57119 63.4378 4.4964 65.4887 5.90448L66.6207 4.25568C64.3096 2.66896 61.6789 1.64105 58.7447 1.16338L58.4233 3.1374ZM65.4944 5.90836C67.5735 7.31483 69.3129 9.20188 70.7089 11.5905L72.4356 10.5814C70.9019 7.95697 68.9629 5.84011 66.615 4.25179L65.4944 5.90836ZM70.7118 11.5954C72.0784 13.9035 72.7695 16.5083 72.7695 19.4355H74.7695C74.7695 16.1779 73.9958 13.2163 72.4327 10.5764L70.7118 11.5954ZM72.7695 19.4355C72.7695 22.5954 71.9139 25.4819 70.1972 28.1184L71.8732 29.2097C73.8022 26.2473 74.7695 22.9814 74.7695 19.4355H72.7695ZM70.1927 28.1253C68.509 30.758 66.2187 32.7301 63.2986 34.0519L64.1233 35.8739C67.3881 34.3962 69.9806 32.1691 71.8776 29.2028L70.1927 28.1253ZM63.4315 35.9231C67.6266 37.144 70.7835 39.2031 72.9757 42.0651L74.5634 40.849C72.0681 37.5912 68.5193 35.3208 63.9904 34.0027L63.4315 35.9231ZM72.9757 42.0651C75.1757 44.9374 76.2852 48.3168 76.2852 52.248H78.2852C78.2852 47.9111 77.0508 44.0964 74.5634 40.849L72.9757 42.0651ZM76.2852 52.248C76.2852 55.3403 75.5599 58.363 74.0939 61.3261L75.8865 62.213C77.4805 58.9911 78.2852 55.6663 78.2852 52.248H76.2852ZM74.092 61.33C72.6643 64.2475 70.7047 66.5717 68.2136 68.3248L69.3646 69.9604C72.1468 68.0025 74.3214 65.4114 75.8885 62.2091L74.092 61.33ZM68.2156 68.3233C65.7757 70.0313 62.7216 71.109 59.0116 71.5177L59.2306 73.5057C63.2029 73.0681 66.5941 71.8997 69.3625 69.9618L68.2156 68.3233ZM59.0136 71.5175C56.6657 71.7713 50.9117 71.9348 41.6824 72L41.6965 74C50.8917 73.935 56.7588 73.7729 59.2286 73.5059L59.0136 71.5175ZM41.6895 72H17.3242V74H41.6895V72ZM18.3242 73V1.41797H16.3242V73H18.3242ZM30.7773 13.332V29.8848H32.7773V13.332H30.7773ZM31.7773 30.8848H41.25V28.8848H31.7773V30.8848ZM41.25 30.8848C46.8584 30.8848 50.4266 30.805 51.8663 30.6336L51.6298 28.6476C50.3351 28.8018 46.9047 28.8848 41.25 28.8848V30.8848ZM51.8656 30.6337C54.5039 30.3213 56.6698 29.4045 58.2657 27.8087L56.8515 26.3945C55.6479 27.5981 53.9401 28.3741 51.6304 28.6476L51.8656 30.6337ZM58.2657 27.8087C59.9124 26.1619 60.707 24.0221 60.707 21.4863H58.707C58.707 23.573 58.0693 25.1766 56.8515 26.3945L58.2657 27.8087ZM60.707 21.4863C60.707 19.0773 60.0285 17.0309 58.5931 15.4443L57.11 16.7861C58.1485 17.934 58.707 19.4683 58.707 21.4863H60.707ZM58.6096 15.463C57.1969 13.8213 55.1291 12.8969 52.5524 12.5835L52.3109 14.5689C54.5519 14.8414 56.0974 15.6097 57.0936 16.7675L58.6096 15.463ZM52.5446 12.5826C51.0418 12.4118 46.8541 12.332 40.0781 12.332V14.332C46.9089 14.332 50.9569 14.415 52.3187 14.5698L52.5446 12.5826ZM40.0781 12.332H31.7773V14.332H40.0781V12.332ZM30.7773 41.7988V60.9395H32.7773V41.7988H30.7773ZM31.7773 61.9395H45.1562V59.9395H31.7773V61.9395ZM45.1562 61.9395C50.3322 61.9395 53.7509 61.7974 55.2732 61.4788L54.8635 59.5212C53.5864 59.7885 50.397 59.9395 45.1562 59.9395V61.9395ZM55.2472 61.4839C57.5944 61.0571 59.543 60.0123 61.0395 58.3333L59.5465 57.0026C58.3736 58.3185 56.8392 59.1616 54.8895 59.5161L55.2472 61.4839ZM61.0386 58.3343C62.6061 56.5803 63.3438 54.2885 63.3438 51.5645H61.3438C61.3438 53.9185 60.7142 55.6958 59.5473 57.0016L61.0386 58.3343ZM63.3438 51.5645C63.3438 49.2491 62.78 47.2178 61.6022 45.5246L59.9603 46.6668C60.8658 47.9684 61.3438 49.583 61.3438 51.5645H63.3438ZM61.6022 45.5246C60.4215 43.8275 58.7206 42.6205 56.5657 41.8787L55.9147 43.7698C57.7312 44.3951 59.0576 45.3691 59.9603 46.6668L61.6022 45.5246ZM56.5706 41.8804C55.4661 41.4938 53.804 41.2305 51.657 41.0584C49.4882 40.8845 46.7492 40.7988 43.4473 40.7988V42.7988C46.7209 42.7988 49.4017 42.884 51.4973 43.052C53.6146 43.2217 55.0612 43.471 55.9099 43.7681L56.5706 41.8804ZM43.4473 40.7988H31.7773V42.7988H43.4473V40.7988Z" fill="black" mask="url(#path-1-outside-1_775_4)"/>
<rect width="10" height="43" transform="matrix(-1 0 0 1 10 30)" fill="url(#paint0_linear_775_4)"/>
</g>
<defs>
<linearGradient id="paint0_linear_775_4" x1="5" y1="0" x2="5" y2="43" gradientUnits="userSpaceOnUse">
<stop stop-color="#3458C4"/>
<stop offset="1" stop-color="#1C3DA1"/>
</linearGradient>
<clipPath id="clip0_775_4">
<rect width="79" height="75" fill="white"/>
</clipPath>
</defs>
</svg>
